<svg xmlns="http://www.w3.org/2000/svg" version="1.1" xmlns:xlink="http://www.w3.org/1999/xlink" xmlns:svgjs="http://svgjs.dev/svgjs" width="1000" height="277" viewBox="0 0 1000 277"><g transform="matrix(1,0,0,1,-0.6060606060606233,0.0557098370961171)"><svg viewBox="0 0 396 110" data-background-color="#ffffff" preserveAspectRatio="xMidYMid meet" height="277" width="1000" xmlns="http://www.w3.org/2000/svg" xmlns:xlink="http://www.w3.org/1999/xlink"><g id="tight-bounds" transform="matrix(1,0,0,1,0.2400000000000091,-0.022123040002071548)"><svg viewBox="0 0 395.52 110.04424608000414" height="110.04424608000414" width="395.52"><g><svg viewBox="0 0 702.0533833632421 195.3300345876924" height="110.04424608000414" width="395.52"><g><rect width="9.959266551116075" height="195.3300345876924" x="270.50273840606303" y="0" fill="#561b0d" opacity="1" stroke-width="0" stroke="transparent" fill-opacity="1" class="rect-r$-0" data-fill-palette-color="primary" rx="1%" id="r$-0" data-palette-color="#561b0d"></rect></g><g transform="matrix(1,0,0,1,306.53338336324214,16.2775028823077)"><svg viewBox="0 0 395.52 162.775028823077" height="162.775028823077" width="395.52"><g id="textblocktransform"><svg viewBox="0 0 395.52 162.775028823077" height="162.775028823077" width="395.52" id="textblock"><g><svg viewBox="0 0 395.52 110.43637814120461" height="110.43637814120461" width="395.52"><g transform="matrix(1,0,0,1,0,0)"><svg width="395.52" viewBox="4.7 -35 125.35000000000001 35" height="110.43637814120461" data-palette-color="#561b0d"><path d="M29.5-18.2Q32.4-17.25 34.1-15.03 35.8-12.8 35.8-9.5L35.8-9.5Q35.8-4.95 32.3-2.48 28.8 0 22.1 0L22.1 0 4.7 0 4.7-35 21.1-35Q27.3-35 30.65-32.58 34-30.15 34-25.9L34-25.9Q34-23.3 32.8-21.3 31.6-19.3 29.5-18.2L29.5-18.2ZM20.4-29.9L11.2-29.9 11.2-20.25 20.4-20.25Q23.8-20.25 25.63-21.48 27.45-22.7 27.45-25.05L27.45-25.05Q27.45-27.45 25.63-28.68 23.8-29.9 20.4-29.9L20.4-29.9ZM21.7-5.1Q29.25-5.1 29.25-10.15L29.25-10.15Q29.25-15.2 21.7-15.2L21.7-15.2 11.2-15.2 11.2-5.1 21.7-5.1ZM87.45-35L93.65-35 82.05 0 75.15 0 66.5-25.9 57.7 0 50.75 0 39.15-35 45.9-35 54.6-8.4 63.65-35 69.65-35 78.5-8.25 87.45-35ZM123.75-18.2Q126.65-17.25 128.34-15.03 130.05-12.8 130.05-9.5L130.05-9.5Q130.05-4.95 126.55-2.48 123.05 0 116.34 0L116.34 0 98.95 0 98.95-35 115.34-35Q121.55-35 124.9-32.58 128.25-30.15 128.25-25.9L128.25-25.9Q128.25-23.3 127.05-21.3 125.84-19.3 123.75-18.2L123.75-18.2ZM114.65-29.9L105.45-29.9 105.45-20.25 114.65-20.25Q118.05-20.25 119.87-21.48 121.7-22.7 121.7-25.05L121.7-25.05Q121.7-27.45 119.87-28.68 118.05-29.9 114.65-29.9L114.65-29.9ZM115.95-5.1Q123.5-5.1 123.5-10.15L123.5-10.15Q123.5-15.2 115.95-15.2L115.95-15.2 105.45-15.2 105.45-5.1 115.95-5.1Z" opacity="1" transform="matrix(1,0,0,1,0,0)" fill="#561b0d" class="wordmark-text-0" data-fill-palette-color="primary" id="text-0"></path></svg></g></svg></g><g transform="matrix(1,0,0,1,0,136.50775654726763)"><svg viewBox="0 0 375.74399999999997 26.267272275809372" height="26.267272275809372" width="375.74399999999997"><g transform="matrix(1,0,0,1,0,0)"><svg width="375.74399999999997" viewBox="2.85 -35.8 523.51 36.599999999999994" height="26.267272275809372" data-palette-color="#f9a61a"><path d="M30.85-18.3Q33.95-17.15 35.65-14.95 37.35-12.75 37.35-9.65L37.35-9.65Q37.35-5.05 33.55-2.53 29.75 0 22.55 0L22.55 0 2.85 0 2.85-35 21.55-35Q28.55-35 32.13-32.5 35.7-30 35.7-25.85L35.7-25.85Q35.7-23.4 34.48-21.45 33.25-19.5 30.85-18.3L30.85-18.3ZM19.95-26.75L14.45-26.75 14.45-21.55 19.95-21.55Q23.8-21.55 23.8-24.15L23.8-24.15Q23.8-26.75 19.95-26.75L19.95-26.75ZM21.55-8.25Q25.45-8.25 25.45-11L25.45-11Q25.45-13.75 21.55-13.75L21.55-13.75 14.45-13.75 14.45-8.25 21.55-8.25ZM41.5 0L41.5-35 53.3-35 53.3 0 41.5 0ZM82.15-9.6L82.15-18.45 92.4-18.45 92.4-3.65Q89.3-1.5 85.2-0.35 81.1 0.8 77.15 0.8L77.15 0.8Q71.55 0.8 67.1-1.53 62.65-3.85 60.12-8.03 57.6-12.2 57.6-17.5L57.6-17.5Q57.6-22.8 60.12-26.98 62.65-31.15 67.17-33.48 71.7-35.8 77.4-35.8L77.4-35.8Q82.55-35.8 86.62-34.08 90.7-32.35 93.4-29.05L93.4-29.05 85.85-22.4Q82.55-26.25 78-26.25L78-26.25Q74.1-26.25 71.8-23.9 69.5-21.55 69.5-17.5L69.5-17.5Q69.5-13.55 71.77-11.15 74.05-8.75 77.85-8.75L77.85-8.75Q80.1-8.75 82.15-9.6L82.15-9.6ZM158.19-35L169.39-35 158.19 0 145.54 0 139.89-18.7 133.94 0 121.29 0 110.09-35 122.24-35 128.34-15.1 134.79-35 145.64-35 151.74-14.85 158.19-35ZM171.99 0L171.99-35 183.79-35 183.79 0 171.99 0ZM189.49 0L189.49-35 201.29-35 201.29-9.15 217.09-9.15 217.09 0 189.49 0ZM220.33 0L220.33-35 237.58-35Q243.43-35 247.91-32.88 252.38-30.75 254.86-26.8 257.33-22.85 257.33-17.5L257.33-17.5Q257.33-12.15 254.86-8.2 252.38-4.25 247.91-2.13 243.43 0 237.58 0L237.58 0 220.33 0ZM232.13-9.2L237.08-9.2Q240.88-9.2 243.16-11.38 245.43-13.55 245.43-17.5L245.43-17.5Q245.43-21.45 243.16-23.63 240.88-25.8 237.08-25.8L237.08-25.8 232.13-25.8 232.13-9.2ZM304.63-18.3Q307.73-17.15 309.43-14.95 311.13-12.75 311.13-9.65L311.13-9.65Q311.13-5.05 307.33-2.53 303.53 0 296.33 0L296.33 0 276.63 0 276.63-35 295.33-35Q302.33-35 305.9-32.5 309.48-30 309.48-25.85L309.48-25.85Q309.48-23.4 308.25-21.45 307.03-19.5 304.63-18.3L304.63-18.3ZM293.73-26.75L288.23-26.75 288.23-21.55 293.73-21.55Q297.58-21.55 297.58-24.15L297.58-24.15Q297.58-26.75 293.73-26.75L293.73-26.75ZM295.33-8.25Q299.23-8.25 299.23-11L299.23-11Q299.23-13.75 295.33-13.75L295.33-13.75 288.23-13.75 288.23-8.25 295.33-8.25ZM332.03 0.8Q323.98 0.8 319.48-3.55 314.98-7.9 314.98-15.75L314.98-15.75 314.98-35 326.78-35 326.78-16.1Q326.78-12.25 328.15-10.5 329.53-8.75 332.13-8.75L332.13-8.75Q334.73-8.75 336.1-10.5 337.48-12.25 337.48-16.1L337.48-16.1 337.48-35 349.07-35 349.07-15.75Q349.07-7.9 344.57-3.55 340.07 0.8 332.03 0.8L332.03 0.8ZM382.92-26.1L366.27-26.1 366.27-20.1 380.87-20.1 380.87-11.2 366.27-11.2 366.27 0 354.47 0 354.47-35 382.92-35 382.92-26.1ZM415.12-26.1L398.47-26.1 398.47-20.1 413.07-20.1 413.07-11.2 398.47-11.2 398.47 0 386.67 0 386.67-35 415.12-35 415.12-26.1ZM443.82 0L441.47-6.1 428.17-6.1 425.82 0 413.82 0 429.12-35 440.72-35 456.02 0 443.82 0ZM431.42-14.6L438.22-14.6 434.82-23.4 431.42-14.6ZM457.92 0L457.92-35 469.71-35 469.71-9.15 485.51-9.15 485.51 0 457.92 0ZM506.61 0.8Q500.96 0.8 496.46-1.55 491.96-3.9 489.41-8.08 486.86-12.25 486.86-17.5L486.86-17.5Q486.86-22.75 489.41-26.93 491.96-31.1 496.46-33.45 500.96-35.8 506.61-35.8L506.61-35.8Q512.26-35.8 516.76-33.45 521.26-31.1 523.81-26.93 526.36-22.75 526.36-17.5L526.36-17.5Q526.36-12.25 523.81-8.08 521.26-3.9 516.76-1.55 512.26 0.8 506.61 0.8L506.61 0.8ZM506.61-8.75Q508.81-8.75 510.59-9.83 512.36-10.9 513.41-12.88 514.46-14.85 514.46-17.5L514.46-17.5Q514.46-20.15 513.41-22.13 512.36-24.1 510.59-25.18 508.81-26.25 506.61-26.25L506.61-26.25Q504.41-26.25 502.64-25.18 500.86-24.1 499.81-22.13 498.76-20.15 498.76-17.5L498.76-17.5Q498.76-14.85 499.81-12.88 500.86-10.9 502.64-9.83 504.41-8.75 506.61-8.75L506.61-8.75Z" opacity="1" transform="matrix(1,0,0,1,0,0)" fill="#f9a61a" class="slogan-text-1" data-fill-palette-color="secondary" id="text-1"></path></svg></g></svg></g></svg></g></svg></g><g transform="matrix(1,0,0,1,0,21.633294401198384)"><svg viewBox="0 0 244.43136 152.06344578529564" height="152.06344578529564" width="244.43136"><g><svg xmlns="http://www.w3.org/2000/svg" xmlns:xlink="http://www.w3.org/1999/xlink" version="1.1" x="0" y="0" viewBox="3.729657747439798 21.197999999999993 92.4513422525602 57.515" enable-background="new 0 0 100 100" xml:space="preserve" height="152.06344578529564" width="244.43136" class="icon-icon-0" data-fill-palette-color="accent" id="icon-0"><path d="M7.146 61.698c0 0 1.863-8.165 12.375-5.729 7.727 1.498 14.093-3.666 14.093-3.666s1.99 7.285 2.318 8.367c21.047 0.434 21.972 6.298 21.972 6.298s-10.238 4.381-29.102 2.864C10.352 68.245 7.146 61.698 7.146 61.698z" fill="#f9a61a" data-fill-palette-color="accent"></path><path d="M35.443 51.22l2.072 7.209c0 0 17.777-0.789 22.714 8.196 7.29-0.771 27.947-2.962 27.947-2.962s2.864-0.099 4.346-1.877c1.481-1.776-1.57-17.72-1.777-19.059-0.032-0.81-0.032-0.81-0.083-2.931s1.86-12.574 1.86-12.574-0.593-3.259-2.567-2.37-19.948-1.186-19.948-1.186l-2.863-2.468c0 0-2.864 1.875-6.52 1.875C56.477 38.875 35.443 51.22 35.443 51.22z" fill="#f9a61a" data-fill-palette-color="accent"></path><path d="M5.882 63.663L4.96 64.322c0 0-0.877 2.834-1.185 4.477s1.054 2.238 1.054 2.238 1.876 1.358 7.769 3.229c0-0.447 0-1.385 0-1.385l3.012 0.882v1.752l3.153 0.371 0.053-0.992 2.016 0.18 0.632 1.626 2.317 0.24 0.571-1.264 2.348 0.422v1.293l2.979 0.451v-1.173l2.137-0.211 0.15 1.384h3.279l0.542-1.053 1.835-0.06 0.452 1.264 2.167 0.18 1.023-1.354 1.896-0.24 0.721 1.294 2.288-0.092 1.082-1.805 2.045-0.12 0.393 1.294 2.437-0.091 1.324-2.226 14.384-2.438 5.206 6.318 2.437-0.301 0.211-1.835 1.896-0.061 0.601 1.265 2.95-0.121 0.512-2.166 1.595 0.15 0.812 1.413 2.949 0.091 0.241-1.293 0.992-0.361 0.663 1.323 7.282-3.61-0.332-8.005c0 0-0.619-1.492-1.461-1.492-1.379 0.127-3.262 1.908-5.443 2.252-0.673 0.062-23.21 2.316-29.208 2.571C20.264 79.246 5.882 63.663 5.882 63.663z" fill="#f9a61a" data-fill-palette-color="accent"></path></svg></g></svg></g></svg></g><defs></defs></svg><rect width="395.52" height="110.04424608000414" fill="none" stroke="none" visibility="hidden"></rect></g></svg></g></svg>